const uint16_t soviet_march_note[292][8]={
{NOTE_A4,},
{NOTE_C4,},
{NOTE_E4,},
{NOTE_C4,},
{NOTE_A4,},
{NOTE_C4,},
{NOTE_E4,},
{NOTE_C4,},
{NOTE_A4,},
{NOTE_C4,},
{NOTE_E4,},
{NOTE_C4,},
{NOTE_A4,},
{NOTE_C4,},
{NOTE_E4,},
{NOTE_C4,},
{NOTE_E4,},
{NOTE_G4,},
{NOTE_A4,},
{NOTE_A4,},
{NOTE_C4,},
{NOTE_E4,},
{NOTE_A4,},
{NOTE_C4,},
{NOTE_GS4,},
{NOTE_A3,NOTE_A3,},
{NOTE_C4,},
{NOTE_E4,},
{NOTE_E4,},
{NOTE_C4,NOTE_A3,},
{NOTE_B4,},
{NOTE_B4,},
{NOTE_D4,},
{NOTE_G4,},
{NOTE_B4,},
{NOTE_D4,},
{NOTE_AS4,},
{NOTE_B4,},
{NOTE_B4,},
{NOTE_D4,},
{NOTE_G4,},
{NOTE_D4,},
{NOTE_A4,},
{NOTE_B4,},
{NOTE_C4,},
{NOTE_C4,},
{NOTE_E4,},
{NOTE_G4,},
{NOTE_C4,},
{NOTE_E4,},
{NOTE_D4,},
{NOTE_C4,NOTE_E4,},
{NOTE_E4,},
{NOTE_C4,},
{NOTE_G4,},
{NOTE_E4,NOTE_D4,},
{NOTE_B4,},
{NOTE_E4,},
{NOTE_E4,},
{NOTE_G4,},
{NOTE_E4,},
{NOTE_E4,},
{NOTE_DS4,},
{NOTE_B4,},
{NOTE_E4,},
{NOTE_E4,},
{NOTE_G4,},
{NOTE_E4,},
{NOTE_G4,},
{NOTE_F4,},
{NOTE_A4,},
{NOTE_E4,},
{NOTE_C4,},
{NOTE_E4,},
{NOTE_E4,},
{NOTE_C4,},
{NOTE_DS4,},
{NOTE_A3,NOTE_E4,},
{NOTE_C4,},
{NOTE_A4,},
{NOTE_E4,},
{NOTE_C4,NOTE_E4,},
{NOTE_F4,},
{NOTE_F4,},
{NOTE_A4,},
{NOTE_D4,},
{NOTE_F4,},
{NOTE_A4,},
{NOTE_E4,},
{NOTE_F4,},
{NOTE_D4,},
{NOTE_A4,},
{NOTE_D4,},
{NOTE_A3,NOTE_D4,},
{NOTE_A4,},
{NOTE_E4,},
{NOTE_C4,},
{NOTE_E4,},
{NOTE_C4,},
{NOTE_C4,},
{NOTE_B4,},
{NOTE_D4,},
{NOTE_D4,},
{NOTE_G4,},
{NOTE_B4,},
{NOTE_D4,},
{NOTE_GS4,},
{NOTE_GS4,},
{NOTE_B4,},
{NOTE_E3,NOTE_GS3,},
{NOTE_B3,NOTE_A3,},
{NOTE_B3,NOTE_B3,},
{NOTE_E4,},
{NOTE_E4,},
{NOTE_GS4,},
{NOTE_E4,},
{NOTE_A4,},
{NOTE_A4,},
{NOTE_C4,},
{NOTE_E4,},
{NOTE_A4,},
{NOTE_C4,},
{NOTE_GS4,},
{NOTE_A3,NOTE_A3,},
{NOTE_C4,},
{NOTE_E4,},
{NOTE_E4,},
{NOTE_C4,NOTE_A3,},
{NOTE_B4,},
{NOTE_B4,},
{NOTE_D4,},
{NOTE_G4,},
{NOTE_B4,},
{NOTE_D4,},
{NOTE_AS4,},
{NOTE_B4,},
{NOTE_B4,},
{NOTE_D4,},
{NOTE_G4,},
{NOTE_D4,},
{NOTE_A4,},
{NOTE_B4,},
{NOTE_C4,},
{NOTE_C4,},
{NOTE_E4,},
{NOTE_G4,},
{NOTE_C4,},
{NOTE_E4,},
{NOTE_D4,},
{NOTE_C4,NOTE_E4,},
{NOTE_E4,},
{NOTE_C4,},
{NOTE_G4,},
{NOTE_E4,NOTE_D4,},
{NOTE_B4,},
{NOTE_E4,},
{NOTE_E4,},
{NOTE_G4,},
{NOTE_E4,},
{NOTE_E4,},
{NOTE_DS4,},
{NOTE_B4,},
{NOTE_E4,},
{NOTE_E4,},
{NOTE_G4,},
{NOTE_E4,},
{NOTE_G4,},
{NOTE_F4,},
{NOTE_A4,},
{NOTE_E4,},
{NOTE_C4,},
{NOTE_E4,},
{NOTE_E4,},
{NOTE_C4,},
{NOTE_DS4,},
{NOTE_A3,NOTE_E4,},
{NOTE_C4,},
{NOTE_A4,},
{NOTE_E4,},
{NOTE_C4,NOTE_E4,},
{NOTE_F4,},
{NOTE_F4,},
{NOTE_A4,},
{NOTE_D4,},
{NOTE_F4,},
{NOTE_A4,},
{NOTE_E4,},
{NOTE_F4,},
{NOTE_D4,},
{NOTE_A4,},
{NOTE_D4,},
{NOTE_A3,NOTE_D4,},
{NOTE_A4,},
{NOTE_E4,},
{NOTE_C4,},
{NOTE_E4,},
{NOTE_C4,},
{NOTE_C4,},
{NOTE_B4,},
{NOTE_D4,},
{NOTE_D4,},
{NOTE_G4,},
{NOTE_B4,},
{NOTE_D4,},
{NOTE_GS4,},
{NOTE_GS4,},
{NOTE_B4,},
{NOTE_E3,NOTE_GS3,},
{NOTE_B3,NOTE_A3,},
{NOTE_B4,},
{NOTE_B4,},
{NOTE_E4,},
{NOTE_GS4,},
{NOTE_E4,},
{NOTE_E4,},
{NOTE_A4,},
{NOTE_E4,},
{NOTE_C4,},
{NOTE_E4,},
{NOTE_C4,},
{NOTE_F4,},
{NOTE_E4,},
{NOTE_B4,},
{NOTE_D4,},
{NOTE_D4,},
{NOTE_G4,},
{NOTE_D4,},
{NOTE_E4,},
{NOTE_D4,},
{NOTE_A4,},
{NOTE_C4,},
{NOTE_C4,},
{NOTE_E4,},
{NOTE_C4,},
{NOTE_D4,},
{NOTE_C4,},
{NOTE_E4,},
{NOTE_B4,},
{NOTE_B4,},
{NOTE_GS4,},
{NOTE_E4,},
{NOTE_C4,},
{NOTE_GS4,},
{NOTE_A4,},
{NOTE_A4,},
{NOTE_C4,},
{NOTE_E4,},
{NOTE_E4,},
{NOTE_C4,},
{NOTE_F3,NOTE_F4,},
{NOTE_A4,},
{NOTE_E4,},
{NOTE_D4,},
{NOTE_C4,},
{NOTE_E4,},
{NOTE_A4,},
{NOTE_B3,NOTE_D4,},
{NOTE_D4,},
{NOTE_D4,},
{NOTE_C4,},
{NOTE_G3,NOTE_D4,},
{NOTE_D4,NOTE_B3,},
{NOTE_GS4,},
{NOTE_GS4,},
{NOTE_A4,},
{NOTE_B3,NOTE_B3,},
{NOTE_E3,NOTE_GS3,},
{NOTE_B3,NOTE_E3,},
{NOTE_A4,},
{NOTE_A4,},
{NOTE_C4,},
{NOTE_E4,},
{NOTE_E4,},
{NOTE_C4,},
{NOTE_F3,NOTE_A4,},
{NOTE_A4,},
{NOTE_G4,},
{NOTE_F4,},
{NOTE_C4,},
{NOTE_E4,},
{NOTE_A4,},
{NOTE_B3,NOTE_D4,},
{NOTE_D4,},
{NOTE_D4,},
{NOTE_C4,},
{NOTE_G3,NOTE_D4,},
{NOTE_D4,NOTE_B3,},
{NOTE_GS4,},
{NOTE_GS4,},
{NOTE_A4,},
{NOTE_B3,NOTE_B3,},
};
uint16_t soviet_march_notedura[292]={
12,12,12,12,12,12,12,12,12,12,12,12,12,12,12,12,6,6,12,24,12,12,18,12,6,12,12,24,12,12,12,24,12,12,18,12,6,12,36,12,12,12,6,6,12,24,12,12,18,12,6,12,12,24,12,12,12,24,12,12,18,12,6,12,36,12,12,12,6,6,12,24,12,12,18,12,6,12,12,24,12,12,12,24,12,12,18,12,6,12,36,12,12,12,12,24,12,12,24,12,12,24,12,12,24,12,12,24,12,12,12,12,12,36,12,12,12,24,12,12,18,12,6,12,12,24,12,12,12,24,12,12,18,12,6,12,36,12,12,12,6,6,12,24,12,12,18,12,6,12,12,24,12,12,12,24,12,12,18,12,6,12,36,12,12,12,6,6,12,24,12,12,18,12,6,12,12,24,12,12,12,24,12,12,18,12,6,12,36,12,12,12,12,24,12,12,24,12,12,24,12,12,24,12,12,24,12,12,12,12,24,12,12,24,12,12,36,12,12,12,6,6,12,36,12,12,12,6,6,12,36,12,12,12,6,6,12,36,12,12,12,6,6,12,24,12,12,24,12,12,12,6,6,12,24,12,12,12,6,6,12,12,12,6,6,12,12,12,12,24,12,12,24,12,12,12,6,6,12,24,12,12,12,6,6,12,12,12,6,6,};
uint16_t soviet_march_noteos[292]={
0,12,24,36,48,60,72,84,96,108,120,132,144,156,168,180,180,186,192,192,204,216,216,228,234,240,252,252,264,276,288,288,300,312,312,324,330,336,336,348,360,372,372,378,384,384,396,408,408,420,426,432,444,444,456,468,480,480,492,504,504,516,522,528,528,540,552,564,564,570,576,576,588,600,600,612,618,624,636,636,648,660,672,672,684,696,696,708,714,720,720,732,744,756,768,768,780,792,792,804,816,816,828,840,840,852,864,864,876,888,900,912,924,924,936,948,960,960,972,984,984,996,1002,1008,1020,1020,1032,1044,1056,1056,1068,1080,1080,1092,1098,1104,1104,1116,1128,1140,1140,1146,1152,1152,1164,1176,1176,1188,1194,1200,1212,1212,1224,1236,1248,1248,1260,1272,1272,1284,1290,1296,1296,1308,1320,1332,1332,1338,1344,1344,1356,1368,1368,1380,1386,1392,1404,1404,1416,1428,1440,1440,1452,1464,1464,1476,1482,1488,1488,1500,1512,1524,1536,1536,1548,1560,1560,1572,1584,1584,1596,1608,1608,1620,1632,1632,1644,1656,1668,1680,1680,1692,1704,1704,1716,1728,1728,1740,1752,1764,1764,1770,1776,1776,1788,1800,1812,1812,1818,1824,1824,1836,1848,1860,1860,1866,1872,1872,1884,1896,1908,1908,1914,1920,1920,1932,1944,1944,1956,1968,1980,1980,1986,1992,1992,2004,2016,2028,2028,2034,2040,2052,2064,2064,2070,2076,2088,2100,2112,2112,2124,2136,2136,2148,2160,2172,2172,2178,2184,2184,2196,2208,2220,2220,2226,2232,2244,2256,2256,2262,};
uint16_t soviet_march_len=292;
